<?xml version="1.0" standalone="no"?>
<!DOCTYPE svg PUBLIC "-//W3C//DTD SVG 20010904//EN"
 "http://www.w3.org/TR/2001/REC-SVG-20010904/DTD/svg10.dtd">
<svg version="1.0" xmlns="http://www.w3.org/2000/svg"
 width="1024.000000pt" height="1024.000000pt" viewBox="0 0 1024.000000 1024.000000"
 preserveAspectRatio="xMidYMid meet">

<g transform="translate(0.000000,1024.000000) scale(0.100000,-0.100000)"
fill="#000000" stroke="none">
<path d="M4690 8521 c-38 -12 -79 -34 -163 -90 -42 -28 -79 -51 -82 -51 -2 0
-78 -48 -167 -107 -90 -58 -185 -121 -213 -138 -197 -126 -281 -178 -360 -225
-49 -30 -165 -104 -257 -165 -93 -60 -223 -145 -290 -188 -254 -161 -478 -303
-520 -329 -69 -42 -294 -185 -369 -234 -97 -63 -109 -78 -109 -137 0 -51 11
-96 65 -267 33 -107 65 -224 160 -590 167 -642 235 -899 341 -1285 132 -483
165 -601 187 -668 l22 -68 225 -109 c550 -266 1056 -508 1180 -565 74 -34 277
-130 450 -214 687 -333 667 -324 697 -316 36 9 86 46 252 188 31 27 99 81 151
120 106 79 323 252 415 332 33 28 96 81 141 116 44 35 138 111 210 168 71 58
188 152 259 210 72 57 155 125 185 151 30 26 158 130 284 231 429 346 630 513
675 562 29 31 35 0 -104 497 -56 201 -121 437 -144 525 -24 88 -60 219 -81
290 -22 72 -60 209 -85 305 -26 96 -64 234 -85 305 -21 72 -48 171 -60 220
-65 277 -241 866 -268 898 -16 18 -97 44 -282 91 -58 14 -139 35 -180 47 -41
11 -113 28 -160 38 -47 11 -121 29 -165 41 -107 29 -301 79 -350 89 -42 10
-218 55 -270 70 -16 5 -57 14 -90 21 -33 7 -100 23 -150 36 -119 30 -211 53
-260 64 -22 5 -115 27 -206 50 -92 22 -175 40 -185 40 -11 0 -57 12 -103 25
-90 26 -101 28 -141 16z m280 -191 c102 -23 210 -48 241 -54 60 -14 79 -22 79
-36 0 -5 -55 -41 -122 -81 -143 -84 -242 -148 -313 -201 -28 -20 -77 -49 -108
-64 -85 -38 -124 -33 -512 69 -58 16 -91 30 -93 39 -3 16 127 105 413 281 185
113 140 108 415 47z m718 -180 c368 -88 415 -103 410 -129 -3 -17 -88 -78
-233 -169 -301 -187 -348 -212 -404 -212 -21 0 -81 11 -132 25 -52 14 -164 43
-249 65 -85 23 -161 47 -169 55 -24 23 -5 58 51 95 111 72 317 195 413 246
121 64 136 66 313 24z m805 -210 c64 -17 176 -44 249 -60 254 -58 270 -66 206
-111 -18 -12 -64 -46 -103 -74 -122 -90 -441 -304 -470 -315 -32 -12 -129 7
-319 65 -61 18 -158 45 -216 60 -113 29 -153 53 -131 79 7 8 60 46 119 84 59
38 170 110 248 160 171 110 230 141 269 142 17 0 83 -14 148 -30z m-2336 -91
c87 -23 190 -48 228 -56 39 -8 80 -16 93 -19 32 -6 29 -46 -6 -76 -15 -13 -61
-43 -102 -67 -41 -24 -111 -68 -155 -96 -340 -221 -357 -227 -521 -185 -118
31 -337 101 -351 112 -30 24 -12 47 90 113 166 108 414 263 449 281 81 42 86
42 275 -7z m743 -198 c58 -16 166 -46 240 -66 74 -20 145 -43 158 -51 49 -31
20 -67 -138 -176 -117 -80 -344 -220 -422 -259 -71 -36 -101 -36 -214 -3 -49
14 -151 41 -228 60 -167 42 -213 60 -221 85 -13 41 25 76 210 191 66 41 174
109 239 152 65 42 133 80 150 85 55 16 119 11 226 -18z m2252 -24 c9 -18 26
-69 38 -113 12 -43 41 -149 64 -234 24 -85 54 -198 66 -251 l23 -97 -23 -36
c-13 -23 -121 -116 -272 -237 -268 -214 -282 -221 -332 -176 -25 22 -35 51
-131 407 -20 74 -43 158 -51 187 -8 28 -14 72 -14 97 0 40 5 51 39 85 21 21
101 83 177 137 77 54 190 136 252 181 63 46 122 83 131 83 10 0 24 -15 33 -33z
m-1259 -282 c144 -42 268 -82 277 -90 13 -13 11 -18 -12 -41 -40 -40 -528
-378 -597 -414 -15 -8 -41 -10 -69 -6 -95 13 -537 144 -579 172 -42 27 -29 51
53 102 42 26 166 107 277 181 111 74 219 142 242 152 71 33 125 25 408 -56z
m-2523 -41 c74 -24 166 -51 204 -59 90 -21 108 -31 104 -58 -3 -23 -31 -43
-233 -167 -59 -36 -174 -110 -257 -165 -133 -88 -156 -100 -192 -99 -64 1
-536 164 -536 184 0 5 21 20 48 35 66 38 208 126 332 205 233 149 311 185 370
173 14 -3 86 -25 160 -49z m675 -213 c64 -17 269 -80 390 -120 68 -22 71 -47
13 -94 -51 -41 -428 -295 -508 -341 -30 -18 -74 -40 -97 -49 l-42 -17 -163 51
c-206 63 -373 127 -394 150 -42 46 -4 78 352 293 251 152 302 166 449 127z
m2312 -33 c31 -34 182 -586 186 -678 3 -79 -14 -101 -172 -226 -80 -64 -189
-151 -242 -194 -118 -96 -151 -114 -193 -106 -51 10 -81 51 -110 151 -14 50
-50 177 -80 283 -31 106 -59 215 -64 242 -16 85 6 113 208 258 63 46 180 130
259 188 79 57 153 104 165 104 13 0 32 -10 43 -22z m-1282 -307 c215 -72 261
-91 263 -107 2 -15 -43 -52 -208 -169 -117 -83 -251 -179 -298 -214 -116 -86
-142 -101 -172 -101 -42 0 -536 170 -611 211 -45 24 -23 46 169 173 103 68
225 152 272 186 122 90 170 110 255 109 61 0 103 -11 330 -88z m-2545 -22
c389 -130 885 -304 1065 -374 39 -15 95 -35 125 -45 95 -30 722 -271 788 -302
43 -21 70 -41 87 -66 25 -38 99 -292 205 -697 32 -121 93 -344 135 -495 42
-151 107 -396 145 -545 81 -320 123 -481 155 -590 33 -110 155 -593 155 -611
0 -11 -6 -13 -22 -8 -45 13 -373 168 -783 369 -60 30 -148 70 -195 89 -47 19
-227 104 -400 189 -173 85 -380 182 -459 217 -152 66 -302 140 -418 208 -61
36 -72 47 -81 79 -5 21 -40 142 -77 268 -37 127 -87 311 -111 410 -23 99 -47
191 -52 205 -15 41 -166 605 -237 887 -36 144 -81 317 -101 385 -55 191 -114
426 -114 454 0 23 2 24 38 18 20 -3 89 -23 152 -45z m4874 -61 c19 -18 38 -71
89 -253 36 -126 70 -255 77 -285 7 -30 21 -86 32 -124 19 -63 19 -71 5 -101
-8 -18 -37 -50 -64 -71 -152 -124 -393 -322 -426 -350 -44 -40 -85 -44 -121
-11 -18 16 -32 50 -51 122 -14 55 -32 120 -40 145 -45 139 -107 392 -108 435
-2 68 19 95 151 197 59 45 159 123 222 174 121 96 187 144 201 144 4 0 19 -10
33 -22z m-1895 -214 c11 -14 26 -49 34 -77 8 -29 42 -149 75 -267 81 -285 97
-366 83 -416 -6 -22 -17 -46 -24 -54 -14 -18 -226 -188 -337 -271 -41 -31
-109 -84 -150 -118 -78 -63 -105 -72 -154 -50 -31 15 -51 56 -66 136 -6 35
-18 82 -26 105 -8 24 -33 106 -54 183 -21 77 -48 167 -59 199 -29 82 -27 141
4 187 14 20 89 83 167 140 78 57 196 144 262 193 125 93 192 136 213 136 6 0
21 -12 32 -26z m1126 -408 c24 -24 55 -110 55 -155 0 -22 -4 -19 -30 22 -35
56 -68 68 -114 43 -18 -9 -96 -69 -175 -132 -79 -63 -168 -131 -198 -151 -73
-48 -140 -117 -147 -150 -6 -26 8 -83 89 -353 25 -81 26 -130 5 -130 -5 0 -16
10 -24 23 -26 40 -138 390 -143 448 -9 95 35 154 207 274 47 32 137 100 200
150 63 50 129 101 145 113 42 30 99 29 130 -2z m-71 -162 c22 -9 20 -66 -3
-95 -19 -23 -19 -24 -40 -5 -35 31 -24 106 15 106 7 0 19 -3 28 -6z m1118
-211 c19 -22 50 -117 83 -253 13 -58 48 -183 76 -278 46 -152 50 -176 39 -197
-7 -13 -75 -76 -151 -140 -76 -64 -191 -164 -256 -222 -151 -134 -154 -136
-186 -124 -35 14 -52 50 -81 173 -14 56 -32 123 -41 148 -33 94 -95 340 -95
380 0 66 25 106 109 170 42 32 153 119 246 195 147 118 211 163 236 165 3 0
13 -8 21 -17z m-1475 -92 c14 -29 4 -55 -28 -71 -28 -16 -49 4 -49 44 0 58 52
76 77 27z m-422 -167 c13 -14 29 -48 35 -77 7 -29 28 -101 47 -162 60 -192
113 -416 113 -474 -1 -96 3 -92 -305 -333 -71 -56 -168 -135 -214 -175 -46
-40 -90 -73 -98 -73 -28 0 -70 30 -81 57 -6 15 -23 77 -37 138 -14 60 -36 139
-49 175 -26 72 -106 378 -106 405 0 46 38 91 154 183 67 52 188 149 271 215
82 67 161 127 175 134 38 20 68 16 95 -13z m1119 -380 c28 -29 36 -67 12 -58
-20 8 -70 -20 -160 -90 -226 -175 -384 -301 -408 -324 -38 -35 -37 -85 3 -219
29 -99 32 -133 9 -133 -14 0 -53 80 -89 186 -34 100 -37 124 -20 175 20 57 53
92 176 185 65 49 163 125 218 169 181 147 209 158 259 109z m-826 -642 c22
-22 105 -277 162 -497 31 -120 41 -173 37 -210 -4 -46 -9 -54 -68 -108 -35
-32 -100 -86 -143 -120 -44 -34 -149 -118 -235 -186 -207 -163 -233 -174 -264
-108 -15 33 -107 364 -107 386 0 7 -11 36 -25 66 -36 81 -58 173 -53 233 6 63
35 104 128 177 35 28 154 122 264 211 111 88 208 163 216 167 30 11 70 7 88
-11z"/>
<path d="M5360 8042 c-145 -80 -310 -182 -310 -193 0 -16 64 -42 214 -86 82
-23 169 -43 193 -43 53 0 102 24 286 139 165 103 192 124 183 139 -15 25 -335
102 -422 102 -29 0 -67 -16 -144 -58z"/>
<path d="M3945 7810 c-11 -4 -102 -57 -202 -116 -100 -60 -204 -121 -232 -136
-28 -16 -51 -32 -51 -37 0 -10 172 -69 276 -96 122 -30 158 -18 389 131 39 25
105 67 148 94 42 27 77 54 77 59 0 6 -19 15 -42 22 -24 6 -95 26 -158 45 -135
38 -178 46 -205 34z"/>
<path d="M4634 7570 c-61 -33 -424 -259 -444 -277 -9 -8 26 -23 110 -48 47
-14 132 -40 189 -57 159 -48 172 -47 326 41 179 101 385 234 382 245 -2 6 -37
20 -78 33 -87 27 -378 103 -396 103 -7 0 -47 -18 -89 -40z"/>
<path d="M3833 7016 c-118 -55 -451 -259 -468 -286 -9 -15 23 -29 218 -95 156
-53 207 -66 237 -62 43 5 93 34 310 175 80 52 162 105 183 118 44 29 46 38 10
52 -62 24 -406 122 -428 122 -5 0 -33 -11 -62 -24z"/>
<path d="M2482 6628 c-19 -19 -15 -57 17 -164 16 -55 50 -175 76 -269 53 -189
61 -208 102 -247 27 -26 207 -106 340 -151 73 -24 101 -17 125 33 18 38 12 81
-39 254 -20 67 -44 155 -55 196 -27 104 -63 166 -112 195 -33 19 -420 165
-437 165 -3 0 -10 -5 -17 -12z"/>
<path d="M3184 6355 c-21 -32 -22 -29 65 -345 80 -290 104 -331 226 -386 159
-71 332 -134 366 -134 47 0 79 36 79 89 0 41 -84 375 -124 490 -41 120 -30
113 -391 250 -71 27 -146 52 -167 56 -32 6 -38 4 -54 -20z"/>
<path d="M3966 6068 c-23 -33 -20 -71 18 -214 19 -71 44 -172 56 -224 27 -120
57 -187 110 -243 35 -39 61 -54 178 -101 75 -30 164 -66 197 -80 77 -33 124
-33 153 -3 12 13 22 32 22 44 0 11 -22 96 -49 189 -27 93 -61 214 -76 269 -33
118 -55 166 -90 193 -38 30 -444 192 -482 192 -12 0 -29 -10 -37 -22z"/>
<path d="M2721 5734 c-12 -15 -21 -29 -21 -33 0 -12 42 -166 156 -578 9 -33
27 -65 47 -86 42 -42 342 -178 408 -184 43 -5 48 -3 69 27 23 32 23 32 7 109
-19 87 -101 386 -123 447 -20 56 -68 119 -118 153 -44 30 -366 171 -390 171
-8 0 -24 -12 -35 -26z"/>
<path d="M3438 5449 c-27 -27 -30 -34 -23 -74 8 -58 127 -488 149 -539 23 -54
77 -118 117 -139 112 -56 391 -177 409 -177 25 0 68 44 77 78 6 24 -25 151
-94 385 -55 191 -82 240 -162 299 -35 25 -372 179 -420 191 -18 4 -31 -2 -53
-24z"/>
<path d="M4210 5132 c-17 -18 -30 -41 -30 -55 0 -58 133 -526 168 -592 41 -75
97 -127 177 -160 39 -16 122 -52 185 -80 63 -29 137 -60 163 -70 l48 -18 26
26 27 26 -16 68 c-24 109 -148 544 -166 588 -37 87 -64 105 -334 219 -202 85
-209 87 -248 48z"/>
<path d="M2957 4832 c-9 -10 -17 -24 -17 -30 0 -6 38 -145 85 -309 71 -247 91
-303 113 -325 26 -26 380 -200 433 -213 17 -4 33 0 50 13 l24 20 -17 84 c-30
141 -118 441 -144 485 -40 69 -99 110 -289 198 -217 100 -217 100 -238 77z"/>
<path d="M3678 4513 c-8 -10 -18 -23 -22 -30 -6 -11 78 -350 130 -521 34 -112
75 -157 187 -205 45 -20 145 -65 222 -101 77 -37 149 -66 161 -66 11 0 31 11
43 24 28 30 28 34 -35 266 -90 330 -117 383 -224 454 -58 38 -399 196 -424
196 -13 0 -30 -8 -38 -17z"/>
<path d="M4450 4148 c-11 -18 -20 -37 -20 -41 0 -4 22 -97 50 -206 109 -435
116 -446 344 -541 54 -23 152 -68 217 -101 65 -32 125 -59 132 -59 22 0 47 34
47 62 0 33 -47 214 -111 426 -34 113 -61 183 -84 218 -31 48 -44 57 -187 129
-199 101 -303 145 -339 145 -22 0 -34 -8 -49 -32z"/>
<path d="M4935 6007 c-19 -16 -28 -35 -32 -67 -6 -53 14 -77 69 -86 30 -5 35
-3 46 20 21 46 15 109 -11 134 -29 28 -39 27 -72 -1z"/>
<path d="M7716 5038 c-22 -30 -20 -81 2 -101 26 -24 37 -21 66 14 28 32 34 77
14 97 -20 20 -65 14 -82 -10z"/>
</g>
</svg>
